<?xml version="1.0" standalone="no"?>
<!DOCTYPE svg PUBLIC "-//W3C//DTD SVG 20010904//EN"
 "http://www.w3.org/TR/2001/REC-SVG-20010904/DTD/svg10.dtd">
<svg version="1.0" xmlns="http://www.w3.org/2000/svg"
 width="260.000000pt" height="260.000000pt" viewBox="0 0 260.000000 260.000000"
 preserveAspectRatio="xMidYMid meet">
<metadata>
Created by potrace 1.14, written by Peter Selinger 2001-2017
</metadata>
<g transform="translate(0.000000,260.000000) scale(0.100000,-0.100000)"
fill="#000000" stroke="none">
<path d="M1487 2504 c-1 -1 -29 -4 -62 -7 -545 -52 -979 -333 -1119 -725 -26
-74 -31 -94 -42 -172 -15 -106 -7 -273 17 -362 l10 -38 32 29 c18 16 72 64
122 107 49 44 96 85 103 91 11 10 9 21 -8 59 -48 109 -63 249 -39 354 31 135
149 279 293 357 77 42 200 87 266 98 19 3 53 10 75 15 22 5 58 10 80 12 39 3
40 2 39 -27 -1 -34 -13 -146 -34 -330 -5 -44 -12 -107 -15 -140 -4 -33 -8 -71
-10 -85 -2 -14 -11 -92 -20 -175 -22 -210 -25 -237 -30 -265 -2 -14 -7 -59
-10 -100 -4 -41 -9 -83 -10 -92 -2 -9 -7 -48 -10 -85 -11 -112 -41 -283 -65
-371 -26 -97 -82 -182 -157 -236 -52 -38 -64 -39 -183 -11 -30 7 -67 16 -81
19 -23 5 -36 -3 -92 -62 -96 -98 -146 -156 -141 -161 2 -2 16 -6 31 -7 16 -2
48 -6 73 -9 120 -15 232 -26 300 -30 30 -2 87 -7 125 -10 92 -8 396 -8 482 0
125 11 157 15 263 36 341 68 585 219 692 428 79 155 66 379 -32 531 -64 100
-204 210 -343 270 -31 14 -57 27 -57 30 0 3 26 19 57 34 220 108 375 273 424
451 7 28 13 91 13 140 -1 78 -5 99 -31 155 -37 79 -95 138 -183 184 -74 39
-219 80 -325 91 -60 7 -392 14 -398 9z m318 -189 c156 -31 276 -110 326 -213
20 -40 23 -63 24 -157 0 -95 -3 -117 -24 -165 -51 -114 -130 -204 -255 -287
-78 -53 -77 -52 -252 -58 -129 -4 -191 3 -187 21 1 5 4 36 8 69 3 33 8 76 10
95 2 19 11 98 19 175 9 77 18 158 21 180 2 22 7 67 11 100 3 33 7 71 9 85 2
14 6 57 10 95 4 39 10 74 12 78 7 12 176 1 268 -18z m-98 -1026 c42 -13 155
-73 186 -98 142 -113 235 -249 262 -382 9 -43 6 -153 -5 -204 -13 -56 -57
-140 -92 -172 -53 -50 -137 -90 -225 -108 -86 -17 -313 -23 -438 -11 -27 3
-88 8 -134 11 -47 4 -92 8 -100 10 -9 1 -41 6 -71 9 -121 15 -120 13 -35 62
127 72 192 126 234 194 31 51 76 212 86 310 4 36 8 72 10 80 2 8 6 47 9 85 4
39 9 90 13 115 3 25 7 56 9 70 1 14 2 30 3 35 1 14 242 10 288 -6z"/>
</g>
</svg>
